<svg xmlns="http://www.w3.org/2000/svg" xmlns:xlink="http://www.w3.org/1999/xlink" width="500" zoomAndPan="magnify" viewBox="0 0 375 374.999991" height="500" preserveAspectRatio="xMidYMid meet" version="1.0"><defs><g/></defs><g fill="#00264d" fill-opacity="1"><g transform="translate(123.103151, 228.350026)"><g><path d="M 76.078125 4.28125 C 69.335938 0.757812 63.472656 -2.660156 58.484375 -5.984375 C 53.492188 -9.304688 49.097656 -12.75 45.296875 -16.3125 C 41.503906 -19.875 38.109375 -23.765625 35.109375 -27.984375 C 32.117188 -32.210938 29.296875 -36.941406 26.640625 -42.171875 C 23.503906 -33.910156 19.988281 -25.835938 16.09375 -17.953125 C 12.195312 -10.066406 7.734375 -2.65625 2.703125 4.28125 C 3.941406 -6.738281 6.175781 -18.46875 9.40625 -30.90625 C 12.632812 -43.351562 16.785156 -55.820312 21.859375 -68.3125 C 26.941406 -80.800781 32.8125 -92.554688 39.46875 -103.578125 C 46.113281 -92.554688 51.953125 -80.800781 56.984375 -68.3125 C 62.015625 -55.820312 66.171875 -43.351562 69.453125 -30.90625 C 72.734375 -18.46875 74.941406 -6.738281 76.078125 4.28125 Z M 39.46875 -80.5 C 37.5625 -74.414062 35.585938 -68.210938 33.546875 -61.890625 C 31.503906 -55.578125 29.34375 -49.335938 27.0625 -43.171875 C 33.332031 -40.796875 38.769531 -37.992188 43.375 -34.765625 C 47.988281 -31.535156 52.21875 -27.757812 56.0625 -23.4375 C 59.90625 -19.113281 63.773438 -14.148438 67.671875 -8.546875 L 68.390625 -9.125 C 62.585938 -20.132812 57.289062 -31.789062 52.5 -44.09375 C 47.707031 -56.394531 43.363281 -68.53125 39.46875 -80.5 Z M 39.46875 -80.5 "/></g></g></g><g fill="#00264d" fill-opacity="1"><g transform="translate(201.880846, 228.350026)"><g><path d="M 49.4375 -42.453125 C 48.769531 -32.003906 46.347656 -21.269531 42.171875 -10.25 C 40.171875 -15.851562 38.550781 -21.316406 37.3125 -26.640625 C 36.082031 -31.960938 35.28125 -37.234375 34.90625 -42.453125 C 24.457031 -43.117188 13.722656 -45.539062 2.703125 -49.71875 C 8.304688 -51.71875 13.765625 -53.332031 19.078125 -54.5625 C 24.398438 -55.800781 29.675781 -56.609375 34.90625 -56.984375 C 35.28125 -62.304688 36.082031 -67.625 37.3125 -72.9375 C 38.550781 -78.257812 40.171875 -83.628906 42.171875 -89.046875 C 44.160156 -83.535156 45.769531 -78.144531 47 -72.875 C 48.238281 -67.601562 49.050781 -62.304688 49.4375 -56.984375 C 54.757812 -56.609375 60.078125 -55.800781 65.390625 -54.5625 C 70.710938 -53.332031 76.078125 -51.671875 81.484375 -49.578125 C 75.984375 -47.679688 70.597656 -46.113281 65.328125 -44.875 C 60.054688 -43.644531 54.757812 -42.835938 49.4375 -42.453125 Z M 49.4375 -42.453125 "/></g></g></g></svg>