<svg xmlns="http://www.w3.org/2000/svg" xmlns:xlink="http://www.w3.org/1999/xlink" width="90"
    x="90"
    zoomAndPan="magnify" viewBox="0 0 375 374.999991" height="90"
    preserveAspectRatio="xMidYMid meet" version="1.0">
    <defs>
        <g />
    </defs>
    <g fill="#00264d" fill-opacity="1">
        <g transform="translate(0.0000045, 292.186587)">
            <g>
                <path
                    d="M 175.046875 9.828125 C 159.523438 1.742188 146.023438 -6.117188 134.546875 -13.765625 C 123.078125 -21.410156 112.972656 -29.332031 104.234375 -37.53125 C 95.492188 -45.726562 87.679688 -54.6875 80.796875 -64.40625 C 73.910156 -74.132812 67.410156 -85.007812 61.296875 -97.03125 C 54.085938 -78.019531 46 -59.441406 37.03125 -41.296875 C 28.070312 -23.160156 17.804688 -6.117188 6.234375 9.828125 C 9.066406 -15.515625 14.195312 -42.5 21.625 -71.125 C 29.0625 -99.757812 38.625 -128.441406 50.3125 -157.171875 C 62.007812 -185.910156 75.503906 -212.957031 90.796875 -238.3125 C 106.097656 -212.957031 119.535156 -185.910156 131.109375 -157.171875 C 142.691406 -128.441406 152.253906 -99.757812 159.796875 -71.125 C 167.335938 -42.5 172.421875 -15.515625 175.046875 9.828125 Z M 90.796875 -185.203125 C 86.429688 -171.210938 81.898438 -156.953125 77.203125 -142.421875 C 72.503906 -127.890625 67.53125 -113.523438 62.28125 -99.328125 C 76.707031 -93.859375 89.21875 -87.410156 99.8125 -79.984375 C 110.414062 -72.554688 120.140625 -63.867188 128.984375 -53.921875 C 137.835938 -43.984375 146.742188 -32.566406 155.703125 -19.671875 L 157.34375 -20.984375 C 144.007812 -46.328125 131.820312 -73.148438 120.78125 -101.453125 C 109.75 -129.753906 99.753906 -157.671875 90.796875 -185.203125 Z M 90.796875 -185.203125 " />
            </g>
        </g>
    </g>
    <g fill="#00264d" fill-opacity="1">
        <g transform="translate(181.261375, 292.186587)">
            <g>
                <path
                    d="M 113.75 -97.6875 C 112.21875 -73.644531 106.644531 -48.945312 97.03125 -23.59375 C 92.4375 -36.488281 88.71875 -49.054688 85.875 -61.296875 C 83.039062 -73.535156 81.1875 -85.664062 80.3125 -97.6875 C 56.269531 -99.21875 31.578125 -104.789062 6.234375 -114.40625 C 19.117188 -118.988281 31.679688 -122.703125 43.921875 -125.546875 C 56.160156 -128.390625 68.289062 -130.25 80.3125 -131.125 C 81.1875 -143.351562 83.039062 -155.585938 85.875 -167.828125 C 88.71875 -180.066406 92.4375 -192.414062 97.03125 -204.875 C 101.613281 -192.195312 105.328125 -179.789062 108.171875 -167.65625 C 111.015625 -155.53125 112.875 -143.351562 113.75 -131.125 C 125.988281 -130.25 138.222656 -128.390625 150.453125 -125.546875 C 162.691406 -122.703125 175.039062 -118.878906 187.5 -114.078125 C 174.820312 -109.703125 162.421875 -106.09375 150.296875 -103.25 C 138.171875 -100.414062 125.988281 -98.5625 113.75 -97.6875 Z M 113.75 -97.6875 " />
            </g>
        </g>
    </g>
</svg>